<svg id="Call_Us" data-name="Call Us" xmlns="http://www.w3.org/2000/svg" width="50" height="51" viewBox="0 0 50 51">
  <defs>
    <style>
      .cls-1 {
        fill: #0290d5;
        fill-rule: evenodd;
      }
    </style>
  </defs>
  <path id="Shape_1_copy_2" data-name="Shape 1 copy 2" class="cls-1" d="M13.377,10.552a2.077,2.077,0,0,1,2.956,0l4.729,6.5a1.861,1.861,0,0,1,0,2.365,15.917,15.917,0,0,1-1.773,1.773,2.424,2.424,0,0,0-.591,2.956c0.769,1.993,4.423,6.2,7.094,7.094a3.54,3.54,0,0,0,2.365,0,5.224,5.224,0,0,0,1.773-1.774s1.424-1.95,3.547,0l5.32,4.138a2.1,2.1,0,0,1,0,2.956l-2.365,2.365s-2.525,2.231-8.276,0S14.75,31.092,10.421,20.01a7.012,7.012,0,0,1,0-5.911A10.147,10.147,0,0,1,13.377,10.552Z"/>
  <path id="Ellipse_1_copy_2" data-name="Ellipse 1 copy 2" class="cls-1" d="M25,0A25,25,0,1,1,0,25,25,25,0,0,1,25,0Zm0,2.844A22.156,22.156,0,1,1,2.844,25,22.156,22.156,0,0,1,25,2.844Z"/>
  <path class="cls-1" d="M35,38s2.055,4.5,6,2l2,2s-4.637,5.52-10-2Z"/>
</svg>
