<svg id="Contact" xmlns="http://www.w3.org/2000/svg" width="50" height="51" viewBox="0 0 50 51">
  <defs>
    <style>
      .cls-1 {
        fill: #0290d5;
      }

      .cls-1, .cls-2 {
        fill-rule: evenodd;
      }

      .cls-2 {
        fill: #d50202;
      }
    </style>
  </defs>
  <path class="cls-1" d="M6,1a3.514,3.514,0,0,1,5,0l8,11a3.149,3.149,0,0,1,0,4,26.931,26.931,0,0,1-3,3s-2.3,1.629-1,5,7.482,10.484,12,12a5.989,5.989,0,0,0,4,0c1.431-.513,3-3,3-3s2.41-3.3,6,0l9,7a3.548,3.548,0,0,1,0,5l-4,4s-4.272,3.774-14,0S8.323,35.745,1,17A11.862,11.862,0,0,1,1,7,17.164,17.164,0,0,1,6,1Z"/>
  <path class="cls-2" d="M25,9h9V0h8V9h8v7H42v9H34V16H25V9Z"/>
</svg>
