<svg id="Whatsapp" xmlns="http://www.w3.org/2000/svg" width="50" height="51" viewBox="0 0 50 51">
  <defs>
    <style>
      .cls-1 {
        fill: #0290d5;
        fill-rule: evenodd;
      }
    </style>
  </defs>
  <path id="Ellipse_1_copy" data-name="Ellipse 1 copy" class="cls-1" d="M25.5,0A24.5,24.5,0,1,1,13.936,46.1c0-.1-13.728,3.752-13.728,3.752S3.943,36.077,3.917,36.1A24.508,24.508,0,0,1,25.5,0Zm0,3.906A20.594,20.594,0,1,1,13.031,40.892c0.008,0.1-8.169,4.094-8.169,4.094S8.924,36.72,8.94,36.745A20.6,20.6,0,0,1,25.5,3.906Z"/>
  <path id="Shape_1_copy" data-name="Shape 1 copy" class="cls-1" d="M13.913,11.253a1.967,1.967,0,0,1,2.8,0l4.479,6.159a1.763,1.763,0,0,1,0,2.24,15.075,15.075,0,0,1-1.68,1.68,2.3,2.3,0,0,0-.56,2.8c0.728,1.887,4.189,5.87,6.719,6.719a3.353,3.353,0,0,0,2.239,0,4.948,4.948,0,0,0,1.68-1.68s1.349-1.847,3.359,0l5.039,3.919a1.987,1.987,0,0,1,0,2.8l-2.24,2.239s-2.392,2.113-7.838,0-12.7-7.421-16.8-17.916a6.641,6.641,0,0,1,0-5.6A9.61,9.61,0,0,1,13.913,11.253Z"/>
</svg>
